<svg width="32" height="31" viewBox="0 0 32 31" fill="none" xmlns="http://www.w3.org/2000/svg">
<path d="M6.98404 17.5305L17.0521 27.548C17.463 27.9569 17.6603 28.4339 17.6438 28.9791C17.6274 29.5242 17.413 30.0012 17.0007 30.4101C16.5898 30.7849 16.1103 30.9812 15.5624 30.9989C15.0145 31.0166 14.5351 30.8204 14.1241 30.4101L0.563113 16.9172C0.357643 16.7128 0.21176 16.4913 0.125463 16.2528C0.0391654 16.0143 -0.00261315 15.7587 0.000126444 15.4862C0.00286604 15.2136 0.0460141 14.958 0.129572 14.7195C0.21313 14.481 0.358329 14.2595 0.565169 14.0551L14.1262 0.562203C14.5029 0.187401 14.9741 0 15.5398 0C16.1055 0 16.5932 0.187401 17.0028 0.562203C17.4137 0.971079 17.6192 1.45696 17.6192 2.01985C17.6192 2.58273 17.4137 3.06793 17.0028 3.47544L6.98404 13.4418H29.9453C30.5275 13.4418 31.0158 13.638 31.4103 14.0306C31.8048 14.4231 32.0014 14.9083 32 15.4862C31.9986 16.064 31.8014 16.5499 31.4082 16.9438C31.0151 17.3377 30.5275 17.5333 29.9453 17.5305H6.98404Z" fill="black"/>
</svg>
