<svg width="28" height="32" viewBox="0 0 28 32" fill="none" xmlns="http://www.w3.org/2000/svg">
<path d="M14 32C12.1042 32 10.3472 31.5259 8.729 30.5778C7.11083 29.6296 5.8345 28.3259 4.9 26.6667H0V23.1111H3.675C3.5875 22.5185 3.53617 21.9259 3.521 21.3333C3.50583 20.7407 3.49883 20.1481 3.5 19.5556H0V16H3.5C3.5 15.4074 3.507 14.8148 3.521 14.2222C3.535 13.6296 3.58633 13.037 3.675 12.4444H0V8.88889H4.9C5.30833 8.20741 5.768 7.57037 6.279 6.97778C6.79 6.38519 7.38033 5.86667 8.05 5.42222L5.25 2.48889L7.7 0L11.4625 3.82222C12.2792 3.55556 13.1104 3.42222 13.9563 3.42222C14.8021 3.42222 15.6333 3.55556 16.45 3.82222L20.3 0L22.75 2.48889L19.8625 5.42222C20.5333 5.86667 21.1388 6.37748 21.679 6.95467C22.2192 7.53185 22.6928 8.17659 23.1 8.88889H28V12.4444H24.325C24.4125 13.037 24.4638 13.6296 24.479 14.2222C24.4942 14.8148 24.5012 15.4074 24.5 16H28V19.5556H24.5C24.5 20.1481 24.4924 20.7407 24.4772 21.3333C24.4621 21.9259 24.4113 22.5185 24.325 23.1111H28V26.6667H23.1C22.1667 28.3259 20.8909 29.6296 19.2727 30.5778C17.6546 31.5259 15.897 32 14 32ZM10.5 23.1111H17.5V19.5556H10.5V23.1111ZM10.5 16H17.5V12.4444H10.5V16Z" fill="black"/>
</svg>
