<svg width="32" height="32" viewBox="0 0 32 32" fill="none" xmlns="http://www.w3.org/2000/svg">
<path d="M5.33393 5.33393H19.5562V8.88949H21.3339V5.33393C21.3339 4.86243 21.1466 4.41025 20.8132 4.07685C20.4798 3.74345 20.0276 3.55615 19.5562 3.55615H5.33393C4.86243 3.55615 4.41025 3.74345 4.07685 4.07685C3.74345 4.41025 3.55615 4.86243 3.55615 5.33393V19.5562C3.55615 20.0276 3.74345 20.4798 4.07685 20.8132C4.41025 21.1466 4.86243 21.3339 5.33393 21.3339H8.88949V19.5562H5.33393V5.33393Z" fill="black"/>
<path d="M26.6665 10.6665H12.4443C11.9728 10.6665 11.5206 10.8538 11.1872 11.1872C10.8538 11.5206 10.6665 11.9728 10.6665 12.4443V26.6665C10.6665 27.138 10.8538 27.5902 11.1872 27.9236C11.5206 28.257 11.9728 28.4443 12.4443 28.4443H26.6665C27.138 28.4443 27.5902 28.257 27.9236 27.9236C28.257 27.5902 28.4443 27.138 28.4443 26.6665V12.4443C28.4443 11.9728 28.257 11.5206 27.9236 11.1872C27.5902 10.8538 27.138 10.6665 26.6665 10.6665ZM26.6665 26.6665H12.4443V12.4443H26.6665V26.6665Z" fill="black"/>
<path d="M18.6671 24.8893H20.4449V20.4449H24.8893V18.6671H20.4449V14.2227H18.6671V18.6671H14.2227V20.4449H18.6671V24.8893Z" fill="black"/>
</svg>
