<svg width="28" height="33" viewBox="0 0 28 33" fill="none" xmlns="http://www.w3.org/2000/svg">
<path d="M13.2349 2.86329L12.458 3.71458C12.6697 3.91074 12.9467 4.0196 13.2342 4.0196C13.5217 4.0196 13.7987 3.91074 14.0104 3.71458L13.2349 2.86329ZM11.0816 10.7131C10.0263 9.93735 8.89911 8.99353 8.04876 7.99881C7.17089 6.97325 6.73501 6.06489 6.73501 5.34469H4.44092C4.44092 6.9131 5.32491 8.35814 6.31137 9.51016C7.32536 10.6946 8.60699 11.7571 9.72957 12.5822L11.0816 10.7131ZM6.73501 5.34469C6.73501 3.7115 7.5303 2.78001 8.4877 2.45615C9.48487 2.11686 10.9714 2.33586 12.458 3.71458L14.0104 2.012C12.0573 0.201455 9.72345 -0.403087 7.75665 0.263143C5.74855 0.944794 4.44092 2.84787 4.44092 5.34469H6.73501ZM16.7403 12.5822C17.8629 11.7587 19.1445 10.6946 20.1585 9.51016C21.145 8.35814 22.029 6.9131 22.029 5.34469H19.7349C19.7349 6.06489 19.3005 6.97325 18.4211 7.99881C17.5708 8.99353 16.4452 9.93735 15.3899 10.7131L16.7403 12.5822ZM22.029 5.34469C22.029 2.84787 20.7213 0.944794 18.7148 0.263143C16.748 -0.403087 14.4126 0.201455 12.4595 2.012L14.0119 3.71458C15.4985 2.33586 16.9866 2.11686 17.9837 2.45615C18.9396 2.78001 19.7349 3.7115 19.7349 5.34469H22.029ZM9.72957 12.5822C10.8843 13.4304 11.8004 14.1522 13.2349 14.1522V11.8389C12.6767 11.8389 12.3708 11.6615 11.0816 10.7131L9.72957 12.5822ZM15.3883 10.7131C14.0991 11.6615 13.7932 11.8389 13.2349 11.8389V14.1522C14.6695 14.1522 15.5856 13.432 16.7403 12.5822L15.3883 10.7131Z" fill="black"/>
<path d="M1 31.057H4.45644C6.00113 31.057 7.5657 31.2204 9.06909 31.532C11.7534 32.0863 14.5148 32.1479 17.2208 31.7139M15.7984 26.6293C15.982 26.6077 16.1578 26.5836 16.3261 26.5568C17.7194 26.3332 18.8893 25.5806 19.9599 24.7648L22.7251 22.6597C23.2187 22.2985 23.8129 22.104 24.4227 22.104C25.0325 22.104 25.6268 22.2985 26.1203 22.6597C26.9967 23.3275 27.2659 24.427 26.7107 25.3246C26.0637 26.3702 25.1522 27.7073 24.2774 28.5247M15.7984 26.6293L15.6302 26.6478M15.7984 26.6293C16.0432 26.5624 16.2676 26.4352 16.4515 26.2592C16.6823 26.0584 16.8708 25.8129 17.0059 25.5373C17.141 25.2617 17.2198 24.9616 17.2378 24.6547C17.2558 24.3479 17.2125 24.0405 17.1105 23.7508C17.0086 23.4611 16.85 23.1949 16.6442 22.9681C16.4449 22.745 16.2128 22.5541 15.956 22.4021C11.6782 19.8282 5.02078 21.7883 1 24.6645M15.7984 26.6293C15.7432 26.6417 15.6868 26.6479 15.6302 26.6478M15.6302 26.6478C14.7078 26.741 13.7786 26.7431 12.8559 26.654" stroke="black" stroke-width="2" stroke-linecap="round"/>
</svg>
