<svg width="32" height="32" viewBox="0 0 32 32" fill="none" xmlns="http://www.w3.org/2000/svg">
<path fill-rule="evenodd" clip-rule="evenodd" d="M32 16C32 24.8368 24.8368 32 16 32C7.1632 32 0 24.8368 0 16C0 7.1632 7.1632 0 16 0C24.8368 0 32 7.1632 32 16ZM25.6008 26.7328C22.9633 29.0991 19.5434 30.4054 16 30.4C8.0472 30.4 1.6 23.9528 1.6 16C1.6 12.2096 3.064 8.7616 5.4584 6.1896L8.6344 9.3656C8.78528 9.51133 8.98736 9.59196 9.19712 9.59014C9.40688 9.58832 9.60753 9.50418 9.75585 9.35585C9.90418 9.20753 9.98832 9.00688 9.99014 8.79712C9.99196 8.58736 9.91133 8.38528 9.7656 8.2344L6.612 5.0808C9.22165 2.83056 12.5542 1.59497 16 1.6C23.9528 1.6 30.4 8.0472 30.4 16C30.4 19.688 29.0128 23.0536 26.7328 25.6008L19.8968 18.7656C20.4286 18.3359 20.8576 17.7927 21.1523 17.1757C21.447 16.5588 21.6 15.8837 21.6 15.2L19.8704 15.472C19.2532 15.5688 18.6624 15.7909 18.1344 16.1247C17.6063 16.4585 17.1522 16.8969 16.8 17.4128V15.0744L17.7296 14.928C18.8083 14.758 19.791 14.2085 20.5005 13.3783C21.2101 12.5482 21.6 11.4921 21.6 10.4L19.8704 10.672C19.2532 10.7688 18.6624 10.9909 18.1344 11.3247C17.6063 11.6585 17.1522 12.0969 16.8 12.6128V11.2L17.172 10.828C17.9219 10.0779 18.3431 9.06066 18.3431 8C18.3431 6.93934 17.9219 5.92211 17.172 5.172L16 4L14.8288 5.1712C14.0787 5.92134 13.6573 6.93875 13.6573 7.9996C13.6573 9.06045 14.0787 10.0779 14.8288 10.828L15.2 11.2V12.6128C14.8478 12.0969 14.3937 11.6585 13.8656 11.3247C13.3376 10.9909 12.7468 10.7688 12.1296 10.672L10.4 10.4C10.4 11.4921 10.7899 12.5482 11.4995 13.3783C12.209 14.2085 13.1917 14.758 14.2704 14.928L15.2 15.0744V17.4128C14.8478 16.8969 14.3937 16.4585 13.8656 16.1247C13.3376 15.7909 12.7468 15.5688 12.1296 15.472L10.4 15.2C10.4 16.2921 10.7899 17.3482 11.4995 18.1783C12.209 19.0085 13.1917 19.558 14.2704 19.728L15.2 19.8744V22.2128C14.8478 21.6969 14.3937 21.2585 13.8656 20.9247C13.3376 20.5909 12.7468 20.3688 12.1296 20.272L10.4 20C10.4 21.0921 10.7899 22.1482 11.4995 22.9783C12.209 23.8085 13.1917 24.358 14.2704 24.528L15.2 24.6744V27.2H16.8V24.3624C17.082 24.5217 17.4099 24.5801 17.7296 24.528C18.4263 24.4184 19.0884 24.1495 19.6642 23.7423C20.24 23.335 20.7141 22.8004 21.0496 22.18L25.6008 26.7328ZM19.2752 20.4072L18.4296 19.5608C18.2008 19.634 17.9668 19.6899 17.7296 19.728L16.8 19.8744V22.2128C17.3936 21.3449 18.2675 20.7074 19.2752 20.4072Z" fill="black"/>
</svg>
