<svg width="32" height="21" viewBox="0 0 32 21" fill="none" xmlns="http://www.w3.org/2000/svg">
<path fill-rule="evenodd" clip-rule="evenodd" d="M32 1.36957C32 1.7328 31.8555 2.08115 31.5983 2.33799C31.3411 2.59484 30.9923 2.73913 30.6286 2.73913H1.37143C1.0077 2.73913 0.658875 2.59484 0.401682 2.33799C0.144489 2.08115 0 1.7328 0 1.36957C0 1.00633 0.144489 0.65798 0.401682 0.401136C0.658875 0.144293 1.0077 0 1.37143 0H30.6286C30.9923 0 31.3411 0.144293 31.5983 0.401136C31.8555 0.65798 32 1.00633 32 1.36957ZM32 10.5C32 10.8632 31.8555 11.2116 31.5983 11.4684C31.3411 11.7253 30.9923 11.8696 30.6286 11.8696H1.37143C1.0077 11.8696 0.658875 11.7253 0.401682 11.4684C0.144489 11.2116 0 10.8632 0 10.5C0 10.1368 0.144489 9.78842 0.401682 9.53157C0.658875 9.27473 1.0077 9.13043 1.37143 9.13043H30.6286C30.9923 9.13043 31.3411 9.27473 31.5983 9.53157C31.8555 9.78842 32 10.1368 32 10.5ZM32 19.6304C32 19.9937 31.8555 20.342 31.5983 20.5989C31.3411 20.8557 30.9923 21 30.6286 21H1.37143C1.0077 21 0.658875 20.8557 0.401682 20.5989C0.144489 20.342 0 19.9937 0 19.6304C0 19.2672 0.144489 18.9188 0.401682 18.662C0.658875 18.4052 1.0077 18.2609 1.37143 18.2609H30.6286C30.9923 18.2609 31.3411 18.4052 31.5983 18.662C31.8555 18.9188 32 19.2672 32 19.6304Z" fill="black"/>
</svg>
