<svg width="32" height="32" viewBox="0 0 32 32" fill="none" xmlns="http://www.w3.org/2000/svg">
<path d="M16 0C24.8367 0 32 7.16333 32 16C32 24.8367 24.8367 32 16 32C7.16333 32 0 24.8367 0 16C0 7.16333 7.16333 0 16 0ZM16 2.66667C8.636 2.66667 2.66667 8.636 2.66667 16C2.66667 23.364 8.636 29.3333 16 29.3333C23.364 29.3333 29.3333 23.364 29.3333 16C29.3333 8.636 23.364 2.66667 16 2.66667ZM16.382 6.85733V8.64867C19.0327 8.86133 20.952 10.4513 21.0367 12.858H18.8313C18.6933 11.522 17.7393 10.748 16.382 10.5787V15L16.8913 15.1267C19.68 15.774 21.2067 16.9193 21.2067 19.1773C21.2067 21.7753 19.086 23.2487 16.382 23.44V25.2207H15.184V23.44C12.4907 23.238 10.36 21.722 10.286 19.1773H12.4807C12.6713 20.418 13.4773 21.33 15.184 21.5107V16.8867L14.7493 16.78C12.056 16.1553 10.604 14.9467 10.604 12.794C10.604 10.4187 12.512 8.85 15.184 8.648V6.85667L16.382 6.85733ZM16.382 17.1627V21.5207C18.1953 21.3827 18.9587 20.524 18.9587 19.3893C18.9587 18.2973 18.3653 17.6507 16.382 17.1627ZM15.184 10.5787C13.6573 10.7693 12.8513 11.6493 12.8513 12.6147C12.8513 13.58 13.488 14.2893 15.1847 14.714L15.184 10.5787Z" fill="black"/>
</svg>
