<svg width="34" height="34" viewBox="0 0 34 34" fill="none" xmlns="http://www.w3.org/2000/svg">
<path d="M12.2002 26.6C12.2002 26.6 13.6402 20.6144 17.0002 17" stroke="black" stroke-width="2" stroke-linecap="round" stroke-linejoin="round"/>
<path d="M23.6973 9.38518L24.2957 15.6092C24.6845 19.646 21.6573 23.2412 17.6205 23.6284C13.6605 24.0092 10.0717 21.1148 9.69094 17.1532C9.50772 15.2513 10.0875 13.3545 11.3027 11.88C12.5179 10.4056 14.2691 9.47419 16.1709 9.29078L22.8061 8.65078C22.913 8.64042 23.0209 8.65125 23.1236 8.68265C23.2262 8.71406 23.3217 8.76542 23.4045 8.8338C23.4873 8.90217 23.5558 8.98621 23.606 9.08111C23.6563 9.176 23.6873 9.27828 23.6973 9.38518Z" stroke="black" stroke-width="2" stroke-linecap="round" stroke-linejoin="round"/>
<path d="M17 33C25.8368 33 33 25.8368 33 17C33 8.1632 25.8368 1 17 1C8.1632 1 1 8.1632 1 17C1 25.8368 8.1632 33 17 33Z" stroke="black" stroke-width="2" stroke-linecap="round" stroke-linejoin="round"/>
</svg>
