<svg width="30" height="32" viewBox="0 0 30 32" fill="none" xmlns="http://www.w3.org/2000/svg">
<path d="M18.7761 32C17.1192 32 15.7761 30.6569 15.7761 29V28.3136C15.7761 27.5233 16.0879 26.7649 16.6439 26.2032L24.0213 18.7496C25.1935 17.5652 27.1063 17.5631 28.2811 18.7449L28.906 19.3736C30.0659 20.5403 30.0697 22.4235 28.9147 23.5949L21.5084 31.1063C20.9446 31.6781 20.1752 32 19.3722 32H18.7761ZM4.73282 8.2C4.73282 9.85685 6.07597 11.2 7.73282 11.2H15.9313C17.5882 11.2 18.9313 9.85685 18.9313 8.2V7.8C18.9313 6.14315 17.5882 4.8 15.9313 4.8H7.73282C6.07597 4.8 4.73282 6.14315 4.73282 7.8V8.2ZM25.3791 22.2593C25.7991 22.6853 26.4892 22.6762 26.8978 22.2393L26.9176 22.2183C27.3034 21.8058 27.2949 21.1623 26.8984 20.7602V20.7602C26.4861 20.3421 25.8116 20.3421 25.3993 20.7602L25.3791 20.7807C24.9748 21.1907 24.9748 21.8493 25.3791 22.2593V22.2593ZM12.6209 26.6441C12.6209 27.8348 11.6556 28.8 10.465 28.8H3C1.34314 28.8 0 27.4569 0 25.8V3C0 1.34315 1.34315 0 3 0H20.8315C21.6344 0 22.4039 0.321903 22.9677 0.89368L27.5332 5.52396C28.0867 6.0853 28.3969 6.84195 28.3969 7.63028V8.60607C28.3969 9.39656 28.0849 10.1551 27.5288 10.7168L19.072 19.2579C19.0203 19.3101 18.9313 19.2735 18.9313 19.2V19.2C18.9313 17.8667 18.4712 16.7333 17.5509 15.8C16.6306 14.8667 15.5131 14.4 14.1985 14.4C12.8838 14.4 11.7663 14.8667 10.8461 15.8C9.92579 16.7333 9.46565 17.8667 9.46565 19.2C9.46565 20.5333 9.92579 21.6667 10.8461 22.6C11.7663 23.5333 12.8838 24 14.1985 24V24C14.257 24 14.2866 24.0706 14.2455 24.1123L12.875 25.5023C12.7122 25.6674 12.6209 25.89 12.6209 26.1219V26.6441Z" fill="black"/>
</svg>
