<svg width="29" height="29" viewBox="0 0 29 29" fill="none" xmlns="http://www.w3.org/2000/svg">
<path d="M3.22222 29C2.33611 29 1.57781 28.6848 0.947333 28.0543C0.316852 27.4238 0.00107407 26.665 0 25.7778V3.22222C0 2.33611 0.315778 1.57781 0.947333 0.947333C1.57889 0.316852 2.33719 0.00107407 3.22222 0H21.2264C21.656 0 22.0658 0.0805557 22.4557 0.241667C22.8456 0.402778 23.1877 0.631019 23.4819 0.926389L28.0736 5.51806C28.369 5.81343 28.5972 6.15606 28.7583 6.54594C28.9194 6.93583 29 7.34505 29 7.77361V25.7778C29 26.6639 28.6848 27.4227 28.0543 28.0543C27.4238 28.6858 26.665 29.0011 25.7778 29H3.22222ZM14.5 24.1667C15.8426 24.1667 16.9838 23.6968 17.9236 22.7569C18.8634 21.8171 19.3333 20.6759 19.3333 19.3333C19.3333 17.9907 18.8634 16.8495 17.9236 15.9097C16.9838 14.9699 15.8426 14.5 14.5 14.5C13.1574 14.5 12.0162 14.9699 11.0764 15.9097C10.1366 16.8495 9.66667 17.9907 9.66667 19.3333C9.66667 20.6759 10.1366 21.8171 11.0764 22.7569C12.0162 23.6968 13.1574 24.1667 14.5 24.1667ZM6.44444 11.2778H17.7222C18.1787 11.2778 18.5616 11.1231 18.8709 10.8138C19.1803 10.5044 19.3344 10.1221 19.3333 9.66667V6.44444C19.3333 5.98796 19.1787 5.60559 18.8693 5.29733C18.56 4.98907 18.1776 4.83441 17.7222 4.83333H6.44444C5.98796 4.83333 5.60559 4.988 5.29733 5.29733C4.98907 5.60667 4.83441 5.98904 4.83333 6.44444V9.66667C4.83333 10.1231 4.988 10.5061 5.29733 10.8154C5.60667 11.1247 5.98904 11.2789 6.44444 11.2778Z" fill="black"/>
</svg>
