<svg width="35" height="35" viewBox="0 0 35 35" fill="none" xmlns="http://www.w3.org/2000/svg">
<path d="M12.5557 0.5C15.9125 0.500025 18.7737 1.66973 21.1094 4.00293C23.4453 6.33643 24.6149 9.19745 24.6113 12.5557L24.6006 13.0615C24.5532 14.2338 24.3409 15.3519 23.96 16.4131C23.5818 17.4665 23.0831 18.4192 22.4629 19.2676L33.3535 30.1572L33.707 30.5107L30.5107 33.707L30.1572 33.3535L19.2676 22.4629C18.4192 23.0831 17.4665 23.5818 16.4131 23.96C15.2002 24.3953 13.9132 24.6113 12.5557 24.6113C9.19658 24.6113 6.33528 23.4419 4.00293 21.1084C1.67069 18.7749 0.501233 15.9136 0.5 12.5557C0.498785 9.19755 1.66825 6.33642 4.00293 4.00293C6.33754 1.66955 9.19875 0.5 12.5557 0.5ZM12.5547 5.05566C10.4618 5.05351 8.70146 5.77945 7.24414 7.24219C5.7856 8.7063 5.05901 10.4687 5.05566 12.5566C5.05239 14.643 5.7783 16.4041 7.24316 17.8691C8.70828 19.3343 10.4694 20.0601 12.5547 20.0557H12.5557C14.6468 20.0556 16.4088 19.3293 17.8701 17.8691C19.331 16.4092 20.0568 14.6477 20.0557 12.5557C20.0545 10.4631 19.3279 8.70196 17.8691 7.24316C16.4104 5.78451 14.6486 5.0579 12.5547 5.05566Z" fill="black" stroke="black"/>
</svg>
