<svg width="35" height="35" viewBox="0 0 35 35" fill="none" xmlns="http://www.w3.org/2000/svg">
<path d="M20.95 3.7804C20.95 2.6588 20.0412 1.75 18.9196 1.75H16.582C15.4588 1.75 14.55 2.6588 14.55 3.7804C14.55 4.7052 13.9164 5.4988 13.054 5.838C12.9175 5.89347 12.7825 5.95 12.6492 6.0076C11.7996 6.3756 10.79 6.2636 10.134 5.6092C9.75306 5.22913 9.23692 5.01568 8.6988 5.01568C8.16068 5.01568 7.64454 5.22913 7.2636 5.6092L5.6092 7.2636C5.22913 7.64454 5.01568 8.16068 5.01568 8.6988C5.01568 9.23692 5.22913 9.75306 5.6092 10.134C6.2652 10.79 6.3772 11.798 6.006 12.6492C5.94769 12.7832 5.89169 12.9181 5.838 13.054C5.4988 13.9164 4.7052 14.55 3.7804 14.55C2.6588 14.55 1.75 15.4588 1.75 16.5804V18.9196C1.75 20.0412 2.6588 20.95 3.7804 20.95C4.7052 20.95 5.4988 21.5836 5.838 22.446C5.89347 22.5825 5.94947 22.7175 6.006 22.8508C6.3756 23.7004 6.2636 24.71 5.6092 25.366C5.22913 25.7469 5.01568 26.2631 5.01568 26.8012C5.01568 27.3393 5.22913 27.8555 5.6092 28.2364L7.2636 29.8908C7.64454 30.2709 8.16068 30.4843 8.6988 30.4843C9.23692 30.4843 9.75306 30.2709 10.134 29.8908C10.79 29.2348 11.798 29.1228 12.6492 29.4924C12.7825 29.5511 12.9175 29.6076 13.054 29.662C13.9164 30.0012 14.55 30.7948 14.55 31.7196C14.55 32.8412 15.4588 33.75 16.5804 33.75H18.9196C20.0412 33.75 20.95 32.8412 20.95 31.7196C20.95 30.7948 21.5836 30.0012 22.446 29.6604C22.5825 29.6071 22.7175 29.5516 22.8508 29.494C23.7004 29.1228 24.71 29.2364 25.3644 29.8908C25.7454 30.2714 26.2619 30.4851 26.8004 30.4851C27.3389 30.4851 27.8554 30.2714 28.2364 29.8908L29.8908 28.2364C30.2709 27.8555 30.4843 27.3393 30.4843 26.8012C30.4843 26.2631 30.2709 25.7469 29.8908 25.366C29.2348 24.71 29.1228 23.702 29.4924 22.8508C29.5511 22.7175 29.6076 22.5825 29.662 22.446C30.0012 21.5836 30.7948 20.95 31.7196 20.95C32.8412 20.95 33.75 20.0412 33.75 18.9196V16.582C33.75 15.4604 32.8412 14.5516 31.7196 14.5516C30.7948 14.5516 30.0012 13.918 29.6604 13.0556C29.6067 12.9197 29.5507 12.7848 29.4924 12.6508C29.1244 11.8012 29.2364 10.7916 29.8908 10.1356C30.2709 9.75466 30.4843 9.23852 30.4843 8.7004C30.4843 8.16228 30.2709 7.64614 29.8908 7.2652L28.2364 5.6108C27.8555 5.23073 27.3393 5.01728 26.8012 5.01728C26.2631 5.01728 25.7469 5.23073 25.366 5.6108C24.71 6.2668 23.702 6.3788 22.8508 6.0092C22.7168 5.95036 22.5819 5.89382 22.446 5.8396C21.5836 5.4988 20.95 4.7036 20.95 3.7804Z" stroke="black" stroke-width="2"/>
<path d="M24.1501 17.7501C24.1501 19.4475 23.4758 21.0753 22.2756 22.2756C21.0753 23.4758 19.4475 24.1501 17.7501 24.1501C16.0527 24.1501 14.4248 23.4758 13.2246 22.2756C12.0244 21.0753 11.3501 19.4475 11.3501 17.7501C11.3501 16.0527 12.0244 14.4248 13.2246 13.2246C14.4248 12.0244 16.0527 11.3501 17.7501 11.3501C19.4475 11.3501 21.0753 12.0244 22.2756 13.2246C23.4758 14.4248 24.1501 16.0527 24.1501 17.7501Z" stroke="black" stroke-width="2"/>
</svg>
