<svg width="32" height="32" viewBox="0 0 32 32" fill="none" xmlns="http://www.w3.org/2000/svg">
<path d="M3.36842 30.3158C2.4421 30.3158 1.6494 29.9862 0.990315 29.3271C0.331228 28.6681 0.00112281 27.8748 0 26.9474V3.36842C0 2.4421 0.330105 1.6494 0.990315 0.990315C1.65053 0.331228 2.44323 0.00112281 3.36842 0H26.9474C27.8737 0 28.6669 0.330105 29.3271 0.990315C29.9874 1.65053 30.3169 2.44323 30.3158 3.36842V12.8842C29.7824 12.6316 29.2351 12.4278 28.6737 12.2728C28.1123 12.1179 27.5368 11.9994 26.9474 11.9175V3.36842H3.36842V18.5263H10.4421C10.6947 19.2842 11.1158 19.9439 11.7053 20.5053C12.2947 21.0667 12.9544 21.4596 13.6842 21.6842C13.6 22.2456 13.5439 22.8143 13.5158 23.3903C13.4877 23.9663 13.5158 24.5344 13.6 25.0947C12.5895 24.8982 11.6424 24.526 10.7587 23.9781C9.87508 23.4302 9.09586 22.7357 8.42105 21.8947H3.36842V26.9474H14.021C14.2175 27.5649 14.4421 28.1544 14.6947 28.7158C14.9474 29.2772 15.2561 29.8105 15.621 30.3158H3.36842ZM6.73684 9.68421H23.5789V6.31579H6.73684V9.68421ZM6.73684 15.5789H16.7158C17.4737 14.7649 18.3231 14.0772 19.264 13.5158C20.2049 12.9544 21.2222 12.5193 22.3158 12.2105H6.73684V15.5789ZM28.6316 32C27.7053 32 26.9125 31.6704 26.2535 31.0114C25.5944 30.3523 25.2643 29.545 25.2631 28.5895L21.8526 26.5263C21.6 26.6667 21.3406 26.7722 21.0745 26.8429C20.8084 26.9137 20.5204 26.9485 20.2105 26.9474C19.2842 26.9474 18.4915 26.6178 17.8324 25.9587C17.1733 25.2996 16.8432 24.5064 16.8421 23.5789C16.841 22.6515 17.1711 21.8588 17.8324 21.2008C18.4937 20.5429 19.2864 20.2128 20.2105 20.2105C20.5193 20.2105 20.8073 20.2459 21.0745 20.3166C21.3417 20.3874 21.6011 20.4923 21.8526 20.6316L25.2631 18.6105C25.2631 17.6561 25.5933 16.8494 26.2535 16.1903C26.9137 15.5312 27.7064 15.2011 28.6316 15.2C29.5568 15.1989 30.35 15.529 31.0114 16.1903C31.6727 16.8516 32.0022 17.6443 32 18.5684C31.9977 19.4925 31.6682 20.2857 31.0114 20.9482C30.3545 21.6107 29.5613 21.9402 28.6316 21.9368C28.3228 21.9368 28.0348 21.902 27.7676 21.8324C27.5003 21.7628 27.241 21.6573 26.9895 21.5158L23.5789 23.5368V23.6631L26.9895 25.6842C27.2421 25.5438 27.502 25.4389 27.7693 25.3693C28.0365 25.2996 28.3239 25.2643 28.6316 25.2631C29.5579 25.2631 30.3511 25.5933 31.0114 26.2535C31.6716 26.9137 32.0011 27.7064 32 28.6316C31.9989 29.5568 31.6693 30.35 31.0114 31.0114C30.3534 31.6727 29.5601 32.0022 28.6316 32Z" fill="black"/>
</svg>
