<svg width="28" height="32" viewBox="0 0 28 32" fill="none" xmlns="http://www.w3.org/2000/svg">
<path d="M23.3333 32C22.037 32 20.9352 31.5333 20.0278 30.6C19.1204 29.6667 18.6667 28.5333 18.6667 27.2C18.6667 27.04 18.7056 26.6667 18.7833 26.08L7.85556 19.52C7.44074 19.92 6.96111 20.2336 6.41667 20.4608C5.87222 20.688 5.28889 20.8011 4.66667 20.8C3.37037 20.8 2.26852 20.3333 1.36111 19.4C0.453704 18.4667 0 17.3333 0 16C0 14.6667 0.453704 13.5333 1.36111 12.6C2.26852 11.6667 3.37037 11.2 4.66667 11.2C5.28889 11.2 5.87222 11.3136 6.41667 11.5408C6.96111 11.768 7.44074 12.0811 7.85556 12.48L18.7833 5.92C18.7315 5.73333 18.6993 5.5536 18.6869 5.3808C18.6744 5.208 18.6677 5.0144 18.6667 4.8C18.6667 3.46667 19.1204 2.33333 20.0278 1.4C20.9352 0.466667 22.037 0 23.3333 0C24.6296 0 25.7315 0.466667 26.6389 1.4C27.5463 2.33333 28 3.46667 28 4.8C28 6.13333 27.5463 7.26667 26.6389 8.2C25.7315 9.13333 24.6296 9.6 23.3333 9.6C22.7111 9.6 22.1278 9.4864 21.5833 9.2592C21.0389 9.032 20.5593 8.71893 20.1444 8.32L9.21667 14.88C9.26852 15.0667 9.30119 15.2469 9.31467 15.4208C9.32815 15.5947 9.33437 15.7877 9.33333 16C9.3323 16.2123 9.32607 16.4059 9.31467 16.5808C9.30326 16.7557 9.27059 16.9355 9.21667 17.12L20.1444 23.68C20.5593 23.28 21.0389 22.9669 21.5833 22.7408C22.1278 22.5147 22.7111 22.4011 23.3333 22.4C24.6296 22.4 25.7315 22.8667 26.6389 23.8C27.5463 24.7333 28 25.8667 28 27.2C28 28.5333 27.5463 29.6667 26.6389 30.6C25.7315 31.5333 24.6296 32 23.3333 32ZM23.3333 28.8C23.7741 28.8 24.1438 28.6469 24.4424 28.3408C24.7411 28.0347 24.8899 27.6544 24.8889 27.2C24.8879 26.7456 24.7385 26.3659 24.4409 26.0608C24.1433 25.7557 23.7741 25.6021 23.3333 25.6C22.8926 25.5979 22.5234 25.7515 22.2258 26.0608C21.9281 26.3701 21.7788 26.7499 21.7778 27.2C21.7767 27.6501 21.9261 28.0304 22.2258 28.3408C22.5255 28.6512 22.8947 28.8043 23.3333 28.8ZM4.66667 17.6C5.10741 17.6 5.47711 17.4464 5.77578 17.1392C6.07444 16.832 6.22326 16.4523 6.22222 16C6.22119 15.5477 6.07185 15.168 5.77422 14.8608C5.47659 14.5536 5.10741 14.4 4.66667 14.4C4.22593 14.4 3.85674 14.5536 3.55911 14.8608C3.26148 15.168 3.11215 15.5477 3.11111 16C3.11007 16.4523 3.25941 16.8325 3.55911 17.1408C3.85882 17.4491 4.228 17.6021 4.66667 17.6ZM23.3333 6.4C23.7741 6.4 24.1438 6.2464 24.4424 5.9392C24.7411 5.632 24.8899 5.25227 24.8889 4.8C24.8879 4.34773 24.7385 3.968 24.4409 3.6608C24.1433 3.3536 23.7741 3.2 23.3333 3.2C22.8926 3.2 22.5234 3.3536 22.2258 3.6608C21.9281 3.968 21.7788 4.34773 21.7778 4.8C21.7767 5.25227 21.9261 5.63253 22.2258 5.9408C22.5255 6.24907 22.8947 6.40213 23.3333 6.4Z" fill="black"/>
</svg>
