<svg width="27" height="32" viewBox="0 0 27 32" fill="none" xmlns="http://www.w3.org/2000/svg">
<path d="M9 3.04762V0H18V3.04762H9ZM12 19.8095H15V10.6667H12V19.8095ZM13.5 32C11.65 32 9.906 31.6383 8.268 30.915C6.63 30.1917 5.199 29.2074 3.975 27.9619C2.751 26.7164 1.7825 25.2622 1.0695 23.5992C0.3565 21.9362 0 20.1651 0 18.2857C0 16.4063 0.3565 14.6347 1.0695 12.9707C1.7825 11.3067 2.751 9.85295 3.975 8.60952C5.199 7.36609 6.6305 6.38222 8.2695 5.6579C9.9085 4.93359 11.652 4.57143 13.5 4.57143C15.05 4.57143 16.5375 4.8254 17.9625 5.33333C19.3875 5.84127 20.725 6.57778 21.975 7.54285L24.075 5.40952L26.175 7.54285L24.075 9.67619C25.025 10.946 25.75 12.3048 26.25 13.7524C26.75 15.2 27 16.7111 27 18.2857C27 20.1651 26.6435 21.9368 25.9305 23.6008C25.2175 25.2648 24.249 26.7185 23.025 27.9619C21.801 29.2053 20.3695 30.1897 18.7305 30.915C17.0915 31.6404 15.348 32.002 13.5 32Z" fill="black"/>
</svg>
