<svg width="32" height="34" viewBox="0 0 32 34" fill="none" xmlns="http://www.w3.org/2000/svg">
<path d="M31 6.3335H1M28.0582 10.7779L27.2465 23.0446C26.9341 27.7628 26.7788 30.1219 25.2524 31.5602C23.7259 32.9984 21.3771 33.0002 16.6829 33.0002H15.3171C10.6229 33.0002 8.27412 33.0002 6.74765 31.5602C5.22118 30.1219 5.06412 27.7628 4.75353 23.0446L3.94176 10.7779" stroke="black" stroke-width="2" stroke-linecap="round"/>
<path d="M6.29443 6.33333H6.48855C7.19875 6.31505 7.88694 6.08128 8.46312 5.6626C9.0393 5.24392 9.47665 4.65981 9.71796 3.98667L9.77796 3.80356L9.94914 3.28622C10.0956 2.84356 10.1697 2.62311 10.2668 2.43467C10.4577 2.06558 10.7318 1.74665 11.067 1.50339C11.4023 1.26014 11.7894 1.09931 12.1974 1.03378C12.4038 1 12.635 1 13.0974 1H18.9033C19.3656 1 19.5968 1 19.8033 1.03378C20.2113 1.09931 20.5984 1.26014 20.9336 1.50339C21.2688 1.74665 21.5429 2.06558 21.7338 2.43467C21.8309 2.62311 21.905 2.84356 22.0515 3.28622L22.2227 3.80356C22.4463 4.55248 22.9088 5.20624 23.5386 5.66358C24.1683 6.12091 24.9302 6.35632 25.7062 6.33333" stroke="black" stroke-width="2"/>
</svg>
