<svg width="34" height="33" viewBox="0 0 34 33" fill="none" xmlns="http://www.w3.org/2000/svg">
<path d="M25.6624 12.8625C26.6 11.9249 26.6 10.4177 26.6 7.40005C26.6 4.38242 26.6 2.87521 25.6624 1.93761M25.6624 12.8625C24.7248 13.8001 23.2176 13.8001 20.2 13.8001H13.7999C10.7823 13.8001 9.27512 13.8001 8.33751 12.8625M25.6624 1.93761C24.7248 1 23.2176 1 20.2 1H13.7999C10.7823 1 9.27512 1 8.33751 1.93761M8.33751 1.93761C7.3999 2.87521 7.3999 4.38242 7.3999 7.40005C7.3999 10.4177 7.3999 11.9249 8.33751 12.8625M18.6 7.40005C18.6 7.8244 18.4314 8.23136 18.1314 8.53143C17.8313 8.83149 17.4243 9.00006 17 9.00006C16.5756 9.00006 16.1687 8.83149 15.8686 8.53143C15.5685 8.23136 15.4 7.8244 15.4 7.40005C15.4 6.9757 15.5685 6.56873 15.8686 6.26867C16.1687 5.96861 16.5756 5.80003 17 5.80003C17.4243 5.80003 17.8313 5.96861 18.1314 6.26867C18.4314 6.56873 18.6 6.9757 18.6 7.40005Z" stroke="black" stroke-width="2"/>
<path d="M26.6 5.80003C25.3269 5.80003 24.106 5.29432 23.2058 4.39414C22.3056 3.49396 21.7999 2.27305 21.7999 1M26.6 9.00006C25.3269 9.00006 24.106 9.50577 23.2058 10.406C22.3056 11.3061 21.7999 12.527 21.7999 13.8001M7.39982 5.80003C8.67286 5.80003 9.89377 5.29432 10.794 4.39414C11.6941 3.49396 12.1999 2.27305 12.1999 1M7.39982 9.00006C8.67286 9.00006 9.89377 9.50577 10.794 10.406C11.6941 11.3061 12.1999 12.527 12.1999 13.8001M5.7998 28.821H9.41583C11.0318 28.821 12.6687 28.9906 14.2415 29.3138C17.0497 29.8889 19.9386 29.9529 22.7695 29.5026C24.1583 29.2786 25.5215 28.9346 26.7568 28.3394C27.8704 27.8002 29.2352 27.0434 30.152 26.1938C31.0672 25.3458 32.0208 23.9586 32.696 22.8738C33.2784 21.9426 32.9968 20.8017 32.0784 20.1089C31.562 19.7342 30.9404 19.5325 30.3024 19.5325C29.6644 19.5325 29.0427 19.7342 28.5264 20.1089L25.6351 22.293C24.5151 23.141 23.2911 23.9202 21.8335 24.1522C21.6575 24.1799 21.4735 24.205 21.2815 24.2274M21.2815 24.2274L21.1055 24.2466M21.2815 24.2274C21.5376 24.158 21.7723 24.026 21.9647 23.8434C22.2062 23.635 22.4034 23.3804 22.5447 23.0944C22.686 22.8085 22.7685 22.4971 22.7873 22.1788C22.8061 21.8604 22.7608 21.5415 22.6542 21.2409C22.5475 20.9403 22.3816 20.6642 22.1663 20.4289C21.9578 20.1975 21.715 19.9994 21.4463 19.8417C16.9711 17.1713 10.0062 19.2049 5.7998 22.189M21.2815 24.2274C21.2237 24.2403 21.1647 24.2467 21.1055 24.2466M21.1055 24.2466C20.1406 24.3433 19.1685 24.3454 18.2031 24.253" stroke="black" stroke-width="2" stroke-linecap="round"/>
<path d="M5.80003 21.0001C5.80003 19.6746 4.72551 18.6001 3.40002 18.6001C2.07452 18.6001 1 19.6746 1 21.0001V29.0002C1 30.3257 2.07452 31.4002 3.40002 31.4002C4.72551 31.4002 5.80003 30.3257 5.80003 29.0002V21.0001Z" stroke="black" stroke-width="2"/>
</svg>
