<svg width="34" height="34" viewBox="0 0 34 34" fill="none" xmlns="http://www.w3.org/2000/svg">
<path d="M23.3999 10.5999C29.7999 10.5999 32.9998 7.39995 32.9998 1C26.5999 1 23.3999 4.19998 23.3999 10.5999Z" stroke="black" stroke-width="2" stroke-linecap="round" stroke-linejoin="round"/>
<path d="M25.6561 3.54381C22.3358 1.40793 18.3431 0.575005 14.4458 1.20522C10.5485 1.83543 7.02183 3.88427 4.54395 6.95773C2.06607 10.0312 0.811984 13.9123 1.02286 17.8545C1.23373 21.7968 2.89467 25.522 5.68627 28.3136C8.47787 31.1052 12.203 32.7661 16.1453 32.977C20.0876 33.1878 23.9686 31.9338 27.0421 29.4559C30.1156 26.978 32.1644 23.4513 32.7946 19.554C33.4248 15.6567 32.5919 11.664 30.456 8.34377" stroke="black" stroke-width="2" stroke-linecap="round" stroke-linejoin="round"/>
<path d="M1 1C5.82973 4.85284 9.76271 9.71101 12.5257 15.237C15.2887 20.763 16.8154 26.8243 16.9999 32.9998C18.4399 22.0878 19.3999 17.7999 23.3998 10.5999" stroke="black" stroke-width="2" stroke-linecap="round" stroke-linejoin="round"/>
</svg>
