<svg width="32" height="32" viewBox="0 0 32 32" fill="none" xmlns="http://www.w3.org/2000/svg">
<path d="M22.8571 20.1143H21.4126L20.9006 19.6206C22.7547 17.4703 23.7736 14.725 23.7714 11.8857C23.7714 8.73343 22.5192 5.71025 20.2902 3.48124C18.0612 1.25224 15.038 0 11.8857 0C8.73343 0 5.71025 1.25224 3.48124 3.48124C1.25224 5.71025 0 8.73343 0 11.8857C0 15.038 1.25224 18.0612 3.48124 20.2902C5.71025 22.5192 8.73343 23.7714 11.8857 23.7714C14.8297 23.7714 17.536 22.6926 19.6206 20.9006L20.1143 21.4126V22.8571L29.2571 32L32 29.2571L22.8571 20.1143ZM11.8857 20.1143C7.31429 20.1143 3.65714 16.4571 3.65714 11.8857C3.65714 7.31429 7.31429 3.65714 11.8857 3.65714C16.4571 3.65714 20.1143 7.31429 20.1143 11.8857C20.1143 16.4571 16.4571 20.1143 11.8857 20.1143ZM7.31429 10.9714H16.4571V12.8H7.31429V10.9714Z" fill="black"/>
</svg>
